<?xml version="1.0" encoding="UTF-8"?>
<svg width="601px" height="100px" viewBox="0 0 601 100" version="1.1" xmlns="http://www.w3.org/2000/svg" xmlns:xlink="http://www.w3.org/1999/xlink">
    <title>Untitled</title>
    <g id="Page-1" stroke="none" stroke-width="1" fill="none" fill-rule="evenodd" stroke-dasharray="8,5" stroke-linecap="round">
        <g id="2-boxes-50/50" transform="translate(0.643462, 0.000000)" stroke="#2D466C" stroke-width="2">
            <path d="M203.356538,1.57617188 C201.356538,4.40820313 185.43606,7.40405924 161.178804,13.0449219 C147.660413,16.1885333 109.977632,25.8466797 74.3711867,49.6142578 C64.2389754,56.3775873 68.3946663,60.9811802 71.9308546,66.2460861 C82.6602492,82.2207031 139.332327,77.0636807 132.143648,58.7672568 C123.737532,37.3722488 33.2675673,47.2651101 13.5782179,75.3144531 C9.58187111,81.0076277 4.6928774,90.5964193 3.35653825,98.0380859" id="Path-2" transform="translate(103.356538, 49.807129) scale(-1, -1) translate(-103.356538, -49.807129) "></path>
            <path d="M388.852163,1.57617188 C387.846189,1.77541152 377.120603,8.20705875 361.179312,9.82519531 C324.353209,13.5632655 260.585639,13.8736216 230.888296,11.4091797 C200.086867,8.85311485 193.134859,24.2998047 193.134859,24.2998047" id="Path-2-Copy" transform="translate(290.993511, 12.937988) scale(-1, -1) translate(-290.993511, -12.937988) "></path>
        </g>
    </g>
</svg>