<?xml version="1.0" encoding="UTF-8"?>
<svg width="401px" height="120px" viewBox="0 0 401 120" version="1.1" xmlns="http://www.w3.org/2000/svg" xmlns:xlink="http://www.w3.org/1999/xlink">
    <title>Untitled</title>
    <g id="Page-1" stroke="none" stroke-width="1" fill="none" fill-rule="evenodd" stroke-dasharray="8,5" stroke-linecap="round">
        <g id="from-bloquote" transform="translate(0.631494, 0.000000)" stroke="#2D466C" stroke-width="2">
            <path d="M1.97299868,2.28662109 C4.39161304,16.3752268 7.17774585,26.2326487 10.3313971,31.8588867 C23.8867442,56.0421596 74.1580177,75.4714887 107.466163,73.3623047 C127.06452,72.1212707 139.759001,58.5229364 138.411475,47.1928711 C134.256196,12.2550596 70.1468268,50.5253906 93.5140143,81.3823242 C106.946646,99.120438 234.236397,98.7746443 237.535499,69.3867188 C241.748389,31.8588867 173.625292,64.6348873 181.097999,96.2988281 C187.392921,122.972168 253.059418,120.048032 272.143897,105.109863 C317.428024,69.6642054 366.536475,77.6982422 382.70835,96.2988281 C387.135501,101.390853 398.30796,118.262695 398.30796,118.262695" id="Path-2" transform="translate(200.140479, 60.274658) scale(-1, 1) translate(-200.140479, -60.274658) "></path>
        </g>
    </g>
</svg>