<?xml version="1.0" encoding="UTF-8"?>
<svg width="601px" height="120px" viewBox="0 0 601 120" version="1.1" xmlns="http://www.w3.org/2000/svg" xmlns:xlink="http://www.w3.org/1999/xlink">
    <title>Untitled</title>
    <g id="Page-1" stroke="none" stroke-width="1" fill="none" fill-rule="evenodd" stroke-dasharray="8,5" stroke-linecap="round">
        <g id="2-boxes-50/50" transform="translate(0.643462, 0.000000)" stroke="#2D466C" stroke-width="2">
            <path d="M14.7228328,96.6660156 C14.231233,95.2496927 45.8787076,90.584314 61.8624812,78.3203125 C82.1496679,62.7543958 91.6257599,31.1436252 61.8624812,35.1992187 C-1.75736407,43.8681641 59.0869266,71.3323931 82.6212703,54.890625 C96.9082683,44.9093181 95.1053575,9.6034612 93.8939351,2" id="Path-2-Copy" transform="translate(54.705701, 49.333008) scale(-1, 1) translate(-54.705701, -49.333008) "></path>
            <path d="M319.421925,118.087891 C313.612778,109.070595 268.835333,108.541229 245.140675,102.140625 C197.833804,89.3616877 138.050751,72.2033954 121.305714,55.3476563 C98.4767748,32.3677953 162.467823,15.551166 162.467823,32.6826172 C162.467823,42.7617187 148.728565,49.2828073 139.56255,50 C130.396534,50.7171927 113.24093,50.7171927 100.911182,48.0498047 C62.3031683,39.6974396 1.63876481,23.8482418 1.63876481,2" id="Path-2-Copy-2" transform="translate(160.530345, 60.043945) scale(-1, 1) translate(-160.530345, -60.043945) "></path>
            <path d="M587.356538,83.4433594 C586.9441,83.3852229 511.200789,71.4238002 459.976655,74.9619141 C415.875585,78.0080292 399.974232,94.1240234 382.243257,94.1240234 C338.078436,94.1240234 326.965163,70.1040164 328.704194,62.9111328 C333.15146,44.5166016 374.138765,45.7832031 374.138765,62.9111328 C374.138765,80.5275705 303.671018,83.763481 272.333101,76.6914062 C247.538292,71.0959244 228.536226,66.6826172 228.536226,50 C228.536226,33.3173828 276.770601,18.6064453 276.770601,44.5166016 C276.770601,70.4267578 154.587984,60.5332031 140.270601,2" id="Path-2-Copy-3" transform="translate(363.813569, 48.062012) scale(-1, 1) translate(-363.813569, -48.062012) "></path>
        </g>
    </g>
</svg>