<?xml version="1.0" encoding="UTF-8"?>
<svg width="601px" height="59px" viewBox="0 0 601 59" version="1.1" xmlns="http://www.w3.org/2000/svg" xmlns:xlink="http://www.w3.org/1999/xlink">
    <title>Untitled</title>
    <g id="Page-1" stroke="none" stroke-width="1" fill="none" fill-rule="evenodd" stroke-dasharray="8,5" stroke-linecap="round">
        <g id="2-boxes-50/50-copy" transform="translate(0.643462, 0.000000)" stroke="#2D466C" stroke-width="2">
            <path d="M22.8614669,57.6562994 C20.9938164,54.5295504 6.40279043,45.3149483 22.8614669,38.1069405 C39.3201434,30.8989327 330.080217,30.9248519 322.106584,1.84321921" id="Path-2-Copy" transform="translate(168.690546, 29.749759) scale(-1, -1) translate(-168.690546, -29.749759) "></path>
            <path d="M344.652907,57.6562994 C332.922438,48.6188565 310.417556,57.067788 315.168532,32.6342842 C317.233013,22.016992 339.565017,14.5454866 339.565017,1.84321921" id="Path-2-Copy-2" transform="translate(329.586266, 29.749759) scale(-1, -1) translate(-329.586266, -29.749759) "></path>
            <path d="M587.420991,57.6562994 C574.546399,56.5983274 550.082635,51.916815 541.949575,49.3196395 C479.893169,29.5028231 314.519624,19.501722 314.519624,1.84321921" id="Path-2-Copy-3" transform="translate(450.970308, 29.749759) scale(-1, -1) translate(-450.970308, -29.749759) "></path>
        </g>
    </g>
</svg>