<?xml version="1.0" encoding="UTF-8"?>
<svg width="511px" height="201px" viewBox="0 0 511 201" version="1.1" xmlns="http://www.w3.org/2000/svg" xmlns:xlink="http://www.w3.org/1999/xlink">
    <title>Untitled</title>
    <g id="Page-1" stroke="none" stroke-width="1" fill="none" fill-rule="evenodd">
        <g id="crazy_vegetables" transform="translate(0.000000, 0.993920)">
            <path d="M408.567,1.21808012 C419.68,-3.03791988 419.105,4.80808012 419.105,10.1660801 C419.105,15.5240801 409.21,10.6720801 406.325,13.9240801 C398.591,22.6460801 402.851,35.4510801 419.105,52.3380801 L386.092,52.3380801 C389.307,49.7030801 391.657,44.6150801 393.142,37.0740801 C395.366,25.7640801 393.142,22.0150801 394.852,13.9240801 C395.994,8.53008012 400.565,4.29408012 408.567,1.21808012 Z" id="Path" fill="#8CEAF2"></path>
            <path d="M347.59,53.5610801 C357.4,48.2970801 365.854,48.8380801 372.95,55.1810801 C375.613,57.5600801 380.633,45.6090801 400.517,45.6090801 C421.038,45.6090801 428.611,56.9570801 431.395,56.9570801 C434.178,56.9570801 435.852,45.9750801 455.935,53.5610801 C457.053,53.5230801 457.768,53.4530801 458.083,53.3530801 C480.954,46.0780801 515.823,61.1050801 509.173,125.35308 C504.741,168.18508 486.995,190.50308 455.934,192.30408 C453.777,195.75908 448.262,197.48608 439.387,197.48608 C430.514,197.48608 424.592,196.25508 421.623,193.79108 C419.556,197.93408 413.439,200.00508 403.272,200.00508 C392.248,200.00508 385.592,197.93408 383.306,193.79208 C378.252,197.30508 371.25,198.53708 362.305,197.48708 C353.697,196.47508 347.988,193.93908 345.179,189.87908 C301.453,179.10908 295.199,142.62508 295.199,122.34308 C295.199,102.06108 301.034,42.7790801 345.179,53.5630801 C345.255,53.5810801 346.06,53.5810801 347.59,53.5610801 Z" id="Path" fill="#FFD597"></path>
            <path d="M347.88,53.5630801 C327.822,64.3770801 317.376,87.0010801 316.543,121.43608 C316.491,123.54308 316.408,119.66208 316.543,121.68608 C317.897,141.83408 327.6,164.57608 345.653,189.91208 C345.502429,189.859755 345.355448,189.797621 345.213,189.72608 C317.054,173.51508 307.117,151.11208 305.982,122.73008 C305.950411,122.054783 305.950411,121.378378 305.982,120.70308 C308.035,74.0570801 322.172,59.8400801 345.463,53.5630801 C345.98,53.4250801 346.785,53.4250801 347.88,53.5630801 L347.88,53.5630801 Z M456.774,53.5630801 C478.701,60.4150801 490.08,81.0830801 490.91,115.56908 C490.96,117.67908 490.906,114.72908 490.91,116.79508 C490.943,137.20808 479.253,162.42708 455.837,192.45508 C456.305,192.55508 456.616,192.55508 456.774,192.45508 C483.766,175.36308 496.89,148.79908 499.623,116.79508 C499.683,116.07708 499.571,116.31008 499.623,115.56908 C503.086,66.1370801 481.178,59.8500801 457.981,53.5630801 C457.467,53.4250801 457.065,53.4250801 456.774,53.5630801 L456.774,53.5630801 Z" id="Shape" fill="#E5C089"></path>
            <path d="M373.718,55.3940801 C374.617,55.0240801 375.048,54.8880801 375.008,54.9840801 C364.637,85.7800801 359.306,108.53408 359.016,123.24908 C358.974,125.36408 359.14,121.88908 359.016,123.92508 C358.086,139.18408 366.246,162.40508 383.494,193.58608 C383.409,193.67208 383.321,193.67208 383.229,193.58608 C358.778,170.90108 346.406,147.42608 346.406,123.92508 C346.406,123.17608 346.384,123.99808 346.406,123.24908 C347.391,92.1810801 356.496,69.5630801 373.719,55.3940801 L373.718,55.3940801 L373.718,55.3940801 Z M430.93,57.0390801 C440.23,80.0510801 445.097,102.65508 445.531,124.84908 C445.572,126.96208 445.407,123.48908 445.531,125.52408 C446.455,140.77308 438.514,163.53408 421.706,193.80408 C421.903,194.02208 422.058,194.07808 422.174,193.97208 C446.054,172.21708 458.054,148.97108 458.054,125.52408 C458.054,124.77708 458.076,125.59808 458.054,124.85008 C457.104,94.7170801 448.58,71.2650801 432.442,57.0400801 C432.115,56.7520801 431.612,56.7520801 430.93,57.0400801 L430.93,57.0390801 Z" id="Shape" fill="#E5C089"></path>
            <path d="M347.906,38.0760801 C354.34,47.3660801 334.57,96.0300801 316.5,125.62808 C298.429,155.22608 276.018,180.96808 267.422,186.29208 C258.828,191.61508 238.998,202.87808 219.788,183.05008 C200.578,163.22408 199.292,154.36408 205.542,139.52408 C211.792,124.68208 229.622,106.56908 244.76,96.3160801 C259.898,86.0630801 295.275,52.0550801 306.22,34.1280801 C309.301,29.0800801 318.243,21.8490801 321.554,21.7400801 C326.517,21.5760801 341.472,28.7900801 347.907,38.0770801 L347.906,38.0760801 Z" id="Path" fill="#502299"></path>
            <path d="M348.748,10.0060801 C351.497,8.20408012 351.189,12.3210801 350.818,12.9290801 C349.534,15.0340801 347.186,17.8880801 343.776,21.4950801 C349.721,26.7900801 352.215,32.4590801 351.258,38.5020801 C350.996,40.1550801 348.368,67.0940801 345.876,64.4600801 C343.384,61.8230801 345.045,46.0470801 340.349,44.7640801 C335.653,43.4820801 326.236,52.3940801 324.159,53.6240801 C322.452,54.6360801 321.332,52.4310801 321.431,51.9340801 C323.587,41.0820801 323.766,30.6070801 322.542,31.9970801 C318.75,36.3070801 298.675,43.1010801 301.012,39.2750801 C302.09,37.5080801 312.743,24.0750801 322.322,18.9680801 C326.438,16.7740801 332.299,16.8180801 339.905,19.0950801 C343.531,14.5260801 346.479,11.4960801 348.748,10.0060801 Z" id="Path" fill="#8CEAF2"></path>
            <path d="M0,143.00408 C0.1,142.52808 0.43,142.10708 0.988,141.73908 C1.548,141.37108 2.041,141.32508 2.468,141.60008 C15.13,151.53408 23.2,152.16308 24.407,152.25708 C24.857,152.29108 25.485,152.12008 27.115,149.83408 C31.721,143.37608 30.05,147.49808 29.531,149.10808 C28.733,151.59408 27.977,152.32508 27.708,155.82308 C27.44,159.32008 31.336,172.21108 25.893,161.39008 C25.344,160.29808 24.965,157.88508 24.05,156.92708 C23.134,155.96808 7.994,151.04008 0,143.00408 Z" id="Path" fill="#8CEAF2"></path>
            <path d="M327.122,196.68608 C345.03,196.68608 353.32,180.73608 350.949,156.10508 C349.851,144.70508 343.981,135.17708 335.863,130.74708 C327.883,126.39108 317.655,127.03508 316.186,127.03508 C297.565,127.03508 280.491,133.79108 280.491,157.96208 C280.491,182.13408 287.726,196.68508 305.506,196.68508 C307.521,196.68508 312.37,195.90508 317.348,195.90508 C322.328,195.90608 324.708,196.68608 327.122,196.68608 Z" id="Path" fill="#FE9797"></path>
            <path d="M326.661,125.97408 C325.171,125.86208 322.601,127.69908 322.143,128.17208 C320.397,129.96908 325.93,131.98508 327.891,132.92808 C329.347,133.62708 334.824,136.97108 333.654,137.14108 C333.057,137.22608 321.3,131.17408 318.402,131.17408 C315.505,131.17408 317.222,145.58708 316.692,145.75808 C315.677,146.08908 314.249,136.36008 314.539,134.22808 C314.691,133.10808 313.961,131.86408 312.644,131.86408 C308.822,131.86408 297.931,139.86408 297.931,138.68908 C297.931,138.11408 307.436,130.67708 310.285,129.47308 C313.135,128.26808 306.121,125.80308 304.689,124.96308 C300.579,122.55508 297.082,123.53808 297.082,122.90308 C297.082,122.59008 305.877,121.80508 314.539,126.69708 C314.756,126.82108 315.626,126.86708 316.599,126.52108 C322.143,124.55108 325.787,124.25608 327.103,124.55108 C331.233,125.47808 332.871,127.31608 332.925,127.36208 C335.759,129.72808 330.846,126.29108 326.661,125.97408 Z" id="Path" fill="#8CEAF2"></path>
            <path d="M318.815,128.98608 C318.815,129.57808 318.141,129.87308 316.794,129.87308 C315.447,129.87308 314.763,129.57808 314.743,128.98608 C315.082,121.52008 316.439,116.24208 318.815,113.15108 C320.265,111.26208 322.679,107.21008 323.951,108.97108 C325.222,110.73208 322.02,112.08908 320.266,115.43708 C317.846,120.06108 317.361,124.57708 318.815,128.98608 Z" id="Path" fill="#8CEAF2"></path>
            <path d="M156.444,37.9670801 C161.959,37.5710801 172.196,36.1720801 183.22,37.7030801 C184.757,37.9170801 192.183,33.1890801 208.083,35.9130801 C225.566,38.9100801 232.763,49.1220801 233.889,65.6710801 C234.956,81.3750801 225.697,152.22608 222.446,164.32008 C220.756,170.60708 209.859,194.93308 187.758,191.96308 C177.308,190.55908 173.459,188.72508 174.074,188.50508 C165.269,191.49408 156.075,184.24908 153.787,181.70308 C149.895,177.37008 145.517,153.37508 147.252,142.92108 C151.455,117.59008 125.214,69.3490801 142.764,44.8680801 C146.45,39.7270801 148.694,38.5250801 156.444,37.9670801 Z" id="Path" fill="#FAFA9E"></path>
            <path d="M179.15,55.5240801 C173.49,59.5190801 171.472,66.1390801 173.091,75.3820801 C175.814,90.9210801 178.004,115.05808 178.518,122.61208 C179.031,130.16408 174.105,152.88808 175.708,176.46908 C176.63,190.05408 176.5,185.37108 176.39,186.52808 C176.018,190.40708 181.627,190.74408 180.908,190.79508 C175.675,191.17208 174.463,189.45008 173.091,188.62508 C172.868,188.49308 173.336,188.01208 172.567,176.69608 C171.107,155.19508 176.723,129.56308 176.297,122.57608 C176.008,117.81608 174.087,100.61508 170.819,75.5440801 C169.341,64.2060801 172.087,57.0770801 179.056,54.1560801 L179.15,55.5240801 Z M201.494,46.1460801 C232.768,43.8960801 201.454,190.08308 201.454,190.08308 C201.454,190.08308 200.927,190.20708 199.557,190.79108 C198.187,191.37408 230.979,46.2750801 198.131,48.6380801 C197.625,48.6750801 200.713,46.2010801 201.495,46.1480801 L201.495,46.1470801 L201.494,46.1460801 Z" id="Shape" fill="#CFCF81"></path>
            <path d="M187.345,16.4740801 C191.22,17.1980801 193.461,17.9460801 194.071,18.7170801 C195,19.8970801 185.795,30.4270801 188.491,33.3470801 C191.188,36.2670801 195.731,34.8410801 198.119,34.8410801 C211.929,34.8410801 215.742,37.5240801 209.614,37.1760801 C203.484,36.8290801 203.729,38.8360801 201.739,41.3790801 C199.469,44.2790801 205.959,45.8930801 206.384,47.5810801 C206.557,48.2680801 204.986,49.5640801 203.572,49.6660801 C198.684,50.0180801 195.319,47.4500801 192.817,47.5810801 C188.565,47.8010801 179.971,55.1330801 179.15,55.5240801 C174.964,57.5140801 177.9,50.9280801 177.595,46.4290801 C177.288,41.9290801 175.479,43.2690801 170.395,40.9860801 C164.758,38.4560801 159.584,38.1720801 159.873,37.8050801 C163.445,33.2750801 178.997,36.2150801 180.643,31.4950801 C181.742,28.3470801 183.975,23.3400801 187.345,16.4740801 Z" id="Path" fill="#8CEAF2"></path>
            <path d="M105.953,97.3830801 C103.035,95.6310801 98.76,94.0030801 98.539,92.6290801 C98.293,91.1030801 103.569,90.2880801 105.178,91.2190801 C107.668,92.6600801 117.423,95.0100801 120.689,94.5060801 C124.097,93.9790801 123.487,84.1720801 124.801,83.2960801 C126.114,82.4180801 132.795,81.5960801 133.419,81.9630801 C134.38,82.5330801 130.651,87.5730801 131.451,91.5890801 C131.587,92.2740801 135.298,84.8530801 140.851,83.6050801 C142.711,83.1850801 145.64,85.3530801 145.64,85.3530801 C145.64,85.3530801 140.536,89.5600801 139.298,91.6320801 C136.034,97.0990801 134.903,103.88208 135.498,108.38308 C136.587,116.64408 149.682,149.27408 145.876,150.90308 C142.069,152.53208 122.536,155.41008 120.938,154.75608 C119.338,154.10008 116.839,148.97208 116.813,138.91508 C116.79,128.85808 120.383,117.12808 112.639,103.22908 C111.067,100.41108 109.605,99.5770801 105.953,97.3830801 Z" id="Path" fill="#9DFF8B"></path>
            <path d="M124.684663,71.0012154 C133.383802,66.3020023 137.085295,56.2900257 132.952179,48.6388397 C128.819063,40.9876538 118.416464,38.594607 109.717325,43.2938201 C101.018186,47.9930332 97.316693,58.0050099 101.449809,65.6561958 C105.582925,73.3073818 115.985524,75.7004285 124.684663,71.0012154 Z" id="Oval" fill="#9DFF8B"></path>
            <path d="M102.681129,82.087407 C110.136732,77.37141 113.035535,68.576103 109.155786,62.4425389 C105.276037,56.3089749 96.0869181,55.1598097 88.6313149,59.8758066 C81.1757117,64.5918036 78.2769092,73.3871107 82.1566583,79.5206747 C86.0364074,85.6542388 95.225526,86.803404 102.681129,82.087407 Z" id="Oval" fill="#9DFF8B"></path>
            <path d="M108.204263,76.9227136 C115.97792,72.7234389 119.248241,63.707418 115.508728,56.7848672 C111.769216,49.8623164 102.435947,47.654665 94.6622891,51.8539397 C86.8886313,56.0532144 83.6183105,65.0692353 87.3578232,71.9917861 C91.0973359,78.9143368 100.430605,81.1219883 108.204263,76.9227136 Z" id="Oval" fill="#9DFF8B"></path>
            <path d="M157.277,56.4120801 C157.008,48.6160801 151.954,43.4910801 140.726,42.8460801 C129.497,42.2010801 124.876,49.7140801 125.144,57.5100801 C125.412,65.3050801 132.822,71.3780801 141.694,71.0750801 C150.569,70.7710801 157.545,64.2070801 157.277,56.4120801 Z" id="Path" fill="#9DFF8B"></path>
            <path d="M105.163,94.6140801 C105.64,93.6210801 105.936,92.4990801 107.878,92.8980801 C109.872,93.3080801 113.525,95.2410801 114.934,94.4570801 C122.205,90.4090801 120.376,81.1720801 117.239,75.4090801 C113.179,67.9530801 103.574,62.2150801 93.674,67.3410801 C83.775,72.4670801 79.027,86.2580801 83.866,94.0060801 C88.704,101.75108 100.125,105.62208 107.656,98.9540801 C108.966,97.7930801 104.196,96.6260801 105.163,94.6140801 Z" id="Path" fill="#9DFF8B"></path>
            <path d="M125.675,85.5100801 C126.77,84.8900801 130.675,83.2080801 132.135,84.5130801 C135.715,87.7160801 137.021,80.8940801 138.454,78.8370801 C142.348,73.2460801 145.606,68.1490801 143.921,61.9850801 C141.417,52.8350801 127.931,47.8750801 117.635,50.5630801 C107.341,53.2530801 104.135,62.5700801 106.639,71.7210801 C107.912,76.3720801 107.707,82.6450801 114.759,84.3770801 C121.811,86.1070801 122.084,87.5450801 125.675,85.5100801 Z" id="Path" fill="#9DFF8B"></path>
            <path d="M166.829,75.2210801 C168.898,66.2680801 163.004,57.1060801 156.399,55.6900801 C149.797,54.2730801 138.422,54.1430801 135.537,65.8020801 C134.114,71.5440801 132.367,78.3380801 135.1,81.7420801 C136.11,83.0020801 136.957,84.1550801 138.627,84.9900801 C139.209,85.2820801 141.767,84.1930801 142.51,84.3900801 C145.58,85.2030801 146.214,87.4630801 148.449,88.0880801 C156.979,90.4700801 164.761,84.1750801 166.829,75.2210801 Z" id="Path" fill="#9DFF8B"></path>
            <path d="M27.402,156.00808 C27.786,150.99108 28.932,147.50608 30.839,145.55408 C35.441,140.98408 55.331,148.92408 105.642,159.35708 C155.952,169.78908 179.039,191.82708 177.692,194.86608 C176.345,197.90408 132.717,182.16508 102.245,176.52008 C71.773,170.87508 34.706,174.23008 29.215,166.76408 C27.622,164.60908 27.018,161.02408 27.402,156.00808 Z" id="Path" fill="#FF8EA8"></path>
            <g id="Group" transform="translate(1.118771, 31.564951)">
                <path d="M40.9909673,45.1097109 C42.8775262,43.7029802 45.5820049,39.6372762 44.928491,39.9908157 C43.9434251,40.5240958 42.4528107,39.0401213 42.1130383,37.9899011 C41.9650729,37.5338649 46.516379,30.4021714 46.6670845,27.7060615 C46.9506848,22.6347011 44.5572075,22.0271479 42.954249,17.2588213 C42.2993651,15.3113833 40.6416046,5.97972354 38.6605123,8.55699664 C38.6605123,8.55699664 40.1470165,13.7130283 40.8471121,19.2285413 C40.9950775,20.3961128 41.8390283,24.0503444 41.8952003,25.2045469 C42.1171484,29.7827346 41.2512768,30.378404 39.9812405,30.6056794 C38.0686507,30.9473352 37.364445,28.8082728 34.954527,24.5346044 C33.39267,21.762736 30.9334303,20.5134642 29.6606538,18.0178914 C28.4166484,15.5787661 26.5040586,11.5011784 26.3177318,10.3053831 C25.9944,8.25247734 28.3892474,3.05336734 28.1782597,0.446385038 C27.9700121,-2.1071207 23.5063892,6.9690399 23.8132804,10.5920768 C24.1201716,14.2165992 33.2995066,26.6944632 31.7842313,28.6522995 C31.0553647,29.5955666 27.8247868,24.5316335 23.4050055,17.9153946 C18.9879643,11.3006413 15.1230533,9.28932842 11.800682,6.32583572 C10.3689798,5.04834012 4.30513845,7.59590402 4.22293545,7.70285714 C3.7475281,8.3208085 10.8786384,8.0979895 13.0392072,10.401938 C14.7298489,12.2052864 15.3532217,13.9313909 17.2288201,16.1655228 C20.4292569,19.9757277 20.0922246,20.7630215 22.4240497,24.5464881 C23.9859067,27.0821683 26.6479139,28.8097583 28.4358291,31.1270759 C29.720936,32.793762 31.3595158,35.9444227 30.2168941,36.9619628 C29.0742724,37.9795029 26.8506813,34.98333 22.4213096,33.2616819 C19.5469447,32.144616 17.9193253,33.8499241 15.8176686,33.6345324 C14.6942276,33.5201519 12.5610598,32.5234083 9.37432345,31.7331436 C7.40145145,31.2429418 -0.316040196,24.3949712 0.0100317043,24.7886181 C1.43077355,26.5087807 4.74355445,32.813073 8.4906412,34.5391775 C14.5722932,37.3407551 22.8624657,36.878777 24.0681097,38.6836109 C24.6572312,39.5659741 28.0001532,43.9941304 23.3584238,44.3758936 C21.6403811,44.5170123 16.1930623,43.5499779 12.3171909,44.6893257 C9.9319338,45.3919483 8.28924385,48.1073691 8.0330445,48.7594861 C7.9015197,49.0907437 10.7704044,47.2487733 12.3445919,47.2294623 C15.8574001,47.1819276 22.5994161,48.7802825 23.9612458,48.5247834 C30.9759018,47.2101513 33.6146181,45.3057916 38.0549502,42.4551938 C39.7962837,41.3366425 39.7277812,46.7526296 40.9909673,45.1097109 L40.9909673,45.1097109 Z" id="Path" stroke="#8CEAF2" stroke-width="0.514411432" fill="#8CEAF2"></path>
                <path d="M167.712372,156.636562 C176.306696,145.501554 83.1295952,46.2505441 72.8254491,36.9679046 C62.5226731,27.6837796 50.7032518,32.3406967 42.1089281,43.4771903 C33.5159745,54.6136839 31.4006173,68.0140186 41.7047634,77.2966581 C52.0075394,86.5792977 159.118048,167.774541 167.712372,156.638048 L167.712372,156.636562 Z" id="Path" stroke="#FFA581" stroke-width="0.757327941" fill="#FFA581"></path>
                <path d="M67.9316305,71.9371185 C53.1693418,88.7391565 51.1293373,84.933408 51.1293373,84.933408 M96.3341371,61.4571982 C96.3711284,63.9007799 92.4185342,68.9706548 84.4818345,76.6683086 M77.0178021,104.384021 C79.6291174,105.137149 84.3256488,101.219991 91.1087664,92.6340326 M120.886803,88.8134295 C120.825151,91.0965815 117.657595,95.1117799 111.386876,100.86051 M158.296018,135.305357 C158.34671,136.550172 156.646478,138.759051 153.199432,141.93645 M153.591267,154.118707 C154.50098,154.069687 156.054617,152.62582 158.249437,149.785621 M108.904346,127.001635 C110.775834,128.179605 114.524291,125.17749 120.148346,117.996777 M141.584148,113.280441 C142.208891,114.653006 139.42221,117.892794 133.222733,122.996835 M132.632242,142.46973 C133.710471,142.5648 136.208072,140.719858 140.123675,136.937877" id="Shape" stroke="#BB7E65" stroke-width="0.757327941" stroke-linecap="round"></path>
            </g>
            <g id="Group" transform="translate(198.917557, 24.666998)">
                <path d="M29.4734433,34.249082 C26.6174433,31.133082 25.7094433,26.529082 30.5154433,31.407082 C35.3224433,36.287082 33.7634433,48.975082 36.8304433,51.890082 C39.8984433,54.805082 39.2614433,63.967082 35.3624433,56.904082 C31.4634433,49.842082 32.3304433,37.364082 29.4734433,34.249082 Z" id="Path" fill="#8CEAF2"></path>
                <path d="M40.9324433,31.853082 C43.0824433,28.337082 41.7524433,24.049082 39.6234433,28.677082 C37.4954433,33.303082 33.8614433,53.605082 36.6984433,53.804082 C39.5344433,54.004082 40.8364433,54.134082 41.0144433,51.566082 C41.1934433,48.998082 38.7844433,35.368082 40.9324433,31.853082 Z" id="Path" fill="#8CEAF2"></path>
                <path d="M52.0864433,4.44608201 C51.3494433,-2.19491799 48.3134433,-0.931917992 49.9514433,5.16408201 C51.5884433,11.260082 44.2474433,22.190082 40.9634433,38.229082 C38.7734433,48.923082 36.2984433,62.741082 33.5384433,79.682082 L44.8074433,79.295082 C42.0204433,67.995082 41.7184433,54.905082 43.8994433,40.027082 C47.1714433,17.709082 52.8244433,11.087082 52.0864433,4.44708201 L52.0864433,4.44608201 Z" id="Path" fill="#8CEAF2"></path>
                <path d="M37.7404433,9.07508201 C38.8044433,2.88308201 40.0934433,9.57908201 38.7674433,12.545082 C37.4404433,15.510082 36.6394433,27.047082 37.7664433,42.109082 C38.5164433,52.151082 38.0264433,64.741082 36.2964433,79.877082 L28.0074433,76.499082 C31.9404433,67.689082 33.8154433,56.357082 33.6274433,42.502082 C33.3474433,21.718082 36.6764433,15.266082 37.7404433,9.07508201 Z" id="Path" fill="#8CEAF2"></path>
                <path d="M63.7174433,12.057082 C64.2404433,4.51708201 63.0214433,7.20108201 61.8534433,11.926082 C60.6854433,16.649082 49.3864433,19.794082 46.0694433,36.297082 C44.9664433,41.789082 42.5354433,44.524082 42.0594433,54.181082 C41.5854433,63.838082 39.1294433,73.049082 40.5174433,79.234082 C41.4434433,83.358082 43.7494433,82.993082 47.4354433,78.139082 C45.6864433,67.421082 45.9174433,54.409082 48.1274433,39.103082 C50.2884433,24.142082 63.3304433,17.623082 63.7174433,12.056082 L63.7174433,12.057082 Z" id="Path" fill="#8CEAF2"></path>
                <path d="M21.0184433,91.941082 C23.5354433,89.261082 27.8134433,77.513082 28.0034433,74.719082 C28.0604433,73.886082 29.4134433,75.561082 29.9864433,75.916082 C31.5724433,76.900082 33.7414433,79.886082 36.7974433,75.460082 C37.3014433,74.728082 37.8444433,78.097082 39.0644433,77.830082 C40.7324433,77.467082 41.8564433,73.945082 43.5744433,75.008082 C45.2944433,76.073082 47.8114433,75.714082 47.7114433,77.194082 C47.3854433,81.992082 47.8694433,90.509082 49.2744433,93.977082 C50.6794433,97.444082 74.1764433,135.538082 59.3594433,157.620082 C52.3674433,168.040082 45.7494433,167.700082 41.4504433,169.474082 C41.0984433,169.619082 40.2444433,168.831082 40.0014433,172.390082 C39.7604433,175.947082 40.1354433,175.256082 39.8014433,175.328082 C39.5384433,175.386082 38.8734433,173.998082 38.7654433,172.299082 C38.6814433,170.979082 39.1624433,169.248082 38.9684433,169.295082 C38.8684433,169.320082 36.0114433,170.084082 37.0464433,171.243082 C38.0794433,172.401082 37.3464433,175.166082 36.7834433,175.111082 C36.2554433,175.059082 37.7444433,174.146082 35.0354433,171.098082 C32.3254433,168.050082 33.2894433,169.376082 32.8204433,169.854082 C32.3774433,170.306082 32.6024433,171.254082 32.6374433,172.560082 C32.6534433,173.199082 33.2454433,175.350082 32.4854433,174.800082 C31.6584433,174.206082 31.2974433,173.320082 31.1244433,172.450082 C30.8124433,170.885082 31.1114433,169.370082 30.4044433,169.680082 C26.4504433,171.412082 26.6664433,175.106082 26.3344433,174.357082 C25.5344433,172.558082 28.1384433,169.387082 27.7694433,169.490082 C26.4454433,169.860082 25.0344433,169.592082 23.5204433,171.200082 C23.0904433,171.659082 21.8954433,172.357082 21.3424433,172.884082 C19.7834433,174.374082 20.2024433,173.229082 21.4674433,171.054082 C22.2234433,169.752082 24.8324433,168.349082 24.6414433,168.263082 C21.8144433,166.995082 10.9644433,170.526082 2.05144335,152.249082 C-6.86155665,133.973082 15.8424433,97.450082 21.0184433,91.941082 L21.0184433,91.941082 Z" id="Path" fill="#FFC377"></path>
                <path d="M44.0364433,97.493082 C43.2954433,96.824082 45.0564433,105.903082 49.0434433,111.358082 C55.2384433,119.831082 58.4014433,126.113082 59.3814433,140.552082 C59.9694433,149.231082 56.2034433,155.772082 53.2254433,159.572082 C51.5574433,161.698082 50.6804433,163.072082 49.6354433,163.216082 C47.9364433,163.450082 50.7554433,164.012082 51.7954433,162.634082 C52.7324433,161.394082 61.5654433,153.814082 60.5284433,140.552082 C59.3814433,125.892082 55.7634433,118.837082 49.6364433,110.783082 C46.9984433,107.316082 44.0364433,97.493082 44.0364433,97.493082 L44.0364433,97.493082 Z M35.0984433,95.825082 C35.6794433,93.455082 35.8944433,105.151082 32.2274433,112.979082 C26.2104433,125.826082 24.8134433,131.225082 23.8474433,136.493082 C22.4374433,144.176082 23.5214433,152.743082 27.0934433,162.196082 L25.6094433,162.250082 C25.6094433,162.250082 19.6054433,151.459082 22.5874433,136.403082 C25.6704433,120.835082 29.1514433,117.276082 30.9864433,112.891082 C34.5114433,104.461082 35.0964433,95.825082 35.0964433,95.825082 L35.0984433,95.825082 L35.0984433,95.825082 Z" id="Shape" fill="#CD9D60"></path>
                <path d="M39.5064433,100.463082 C39.1114433,98.258082 38.0874433,109.440082 40.4084433,116.768082 C44.2184433,128.794082 44.7904433,133.820082 45.4764433,138.715082 C46.6294433,146.945082 44.3844433,157.698082 43.4694433,160.016082 C42.5484433,162.351082 42.6544433,161.785082 43.0144433,162.389082 C43.3344433,162.929082 44.4634433,160.016082 44.4634433,160.016082 C44.4634433,160.016082 48.7834433,152.709082 46.6944433,138.715082 C44.5344433,124.247082 42.6474433,120.869082 41.4744433,116.768082 C39.2214433,108.888082 39.5064433,100.463082 39.5064433,100.463082 Z M27.5264433,95.746082 C28.2424433,93.252082 28.9464433,96.870082 22.2364433,106.840082 C15.5224433,116.812082 11.1864433,122.088082 10.2144433,136.416082 C9.30444335,149.851082 15.4694433,160.646082 19.1074433,161.098082 C21.2324433,161.363082 17.3144433,162.374082 15.9904433,160.984082 C14.8004433,159.735082 7.46044335,154.276082 8.68044335,136.306082 C9.71544335,121.034082 18.6624433,109.855082 20.9944433,106.752082 C24.1804433,102.513082 27.5284433,95.746082 27.5284433,95.746082 L27.5274433,95.746082 L27.5264433,95.746082 Z" id="Shape" fill="#CD9D60"></path>
            </g>
        </g>
    </g>
</svg>