<svg viewBox="0 0 30 30" xmlns="http://www.w3.org/2000/svg" fill-rule="evenodd" clip-rule="evenodd" stroke-linejoin="round" stroke-miterlimit="2"><path d="M15.015 0C6.723 0 0 6.894 0 15.398c0 6.803 4.302 12.573 10.27 14.61.75.14 1.025-.334 1.025-.743 0-.365-.013-1.334-.02-2.618-4.178.93-5.059-2.065-5.059-2.065-.683-1.778-1.668-2.252-1.668-2.252-1.362-.955.104-.936.104-.936 1.507.11 2.3 1.587 2.3 1.587 1.34 2.353 3.515 1.673 4.37 1.28.137-.996.525-1.674.954-2.058-3.334-.389-6.84-1.71-6.84-7.61 0-1.681.585-3.056 1.545-4.132-.155-.39-.67-1.955.147-4.075 0 0 1.26-.414 4.13 1.579a14.03 14.03 0 013.76-.518c1.275.005 2.56.176 3.759.518 2.867-1.993 4.126-1.579 4.126-1.579.82 2.12.304 3.685.15 4.075.961 1.076 1.543 2.45 1.543 4.13 0 5.917-3.512 7.218-6.857 7.599.54.476 1.02 1.415 1.02 2.852 0 2.057-.02 3.718-.02 4.223 0 .413.27.891 1.034.741 5.963-2.04 10.261-7.808 10.261-14.608C30.034 6.894 23.31 0 15.015 0" /></svg>
