<svg height="32" viewBox="0 0 80 80" width="32" xmlns="http://www.w3.org/2000/svg" fill-rule="evenodd" clip-rule="evenodd" stroke-linejoin="round" stroke-miterlimit="2" fill="currentColor"><path d="M39.996 0C17.908 0 0 18.362 0 41.014c0 18.12 11.46 33.49 27.355 38.916 2.001.375 2.73-.891 2.73-1.98 0-.97-.034-3.552-.053-6.973-11.127 2.477-13.474-5.499-13.474-5.499-1.82-4.736-4.442-5.997-4.442-5.997-3.632-2.545.275-2.495.275-2.495 4.015.292 6.126 4.227 6.126 4.227 3.568 6.267 9.364 4.457 11.642 3.41.364-2.652 1.395-4.46 2.54-5.484-8.882-1.035-18.221-4.555-18.221-20.27 0-4.477 1.56-8.138 4.118-11.005-.413-1.038-1.785-5.207.39-10.854 0 0 3.36-1.103 11.001 4.204 3.19-.909 6.613-1.364 10.014-1.38 3.396.016 6.82.471 10.014 1.38 7.637-5.307 10.989-4.204 10.989-4.204 2.183 5.647.81 9.816.398 10.854 2.563 2.867 4.113 6.528 4.113 11.004 0 15.756-9.354 19.223-18.265 20.238 1.437 1.266 2.716 3.769 2.716 7.596 0 5.48-.05 9.904-.05 11.249 0 1.098.72 2.374 2.751 1.974C68.55 74.489 80 59.128 80 41.014 80 18.362 62.09 0 39.996 0" /></svg>