<svg width="141" height="58" xmlns="http://www.w3.org/2000/svg"><g fill="none" fill-rule="evenodd"><path d="M32.824 3.17c-.09-.004-.184-.004-.275-.004-6.59 0-12.097 4.614-13.41 10.761-1.467-.781-3.788-1.327-6.11-1.327-3.458 0-6.403 1.02-8.833 3.058C1.765 17.697.55 20.569.55 24.277c0 3.706 1.129 6.324 3.388 8.41 2.259 2.085 5.29 3.127 9.092 3.127 3.801 0 5.608 1.313 5.608 3.938 0 1.36-.553 2.402-1.659 3.127-1.107.726-2.454 1.09-4.043 1.09-3.646 0-5.578-1.545-5.796-4.634H.877c-.063 3.336.943 5.923 3.014 7.76 2.073 1.839 5.088 2.758 9.045 2.758 3.428 0 6.372-.88 8.834-2.641 2.461-1.76 3.693-4.247 3.693-7.46 0-3.398-1.714-5.853-5.142-7.367 3.21-1.637 4.86-4.31 4.955-8.016.093-2.379-1.082-5.396-1.94-6.554-.334-.449-.668-.924-1.087-1.415 6.057-1.406 10.572-6.795 10.575-13.23zM17.143 28.309c-1.122.957-2.493 1.436-4.113 1.436-1.714 0-3.14-.502-4.278-1.506-1.137-1.003-1.705-2.325-1.705-3.961 0-1.792.552-3.198 1.659-4.217 1.106-1.02 2.547-1.53 4.324-1.53 1.651 0 3.03.556 4.135 1.669 1.106 1.112 1.66 2.47 1.66 4.078 0 1.729-.56 3.073-1.682 4.03z" fill="#000"/><path fill="#8CEAF2" fill-rule="nonzero" d="M18.825 24.277c0 1.729-.56 3.073-1.682 4.03-1.122.958-2.493 1.437-4.113 1.437-1.714 0-3.14-.502-4.278-1.506-1.137-1.003-1.705-2.325-1.705-3.961 0-1.792.552-3.198 1.659-4.217 1.106-1.02 2.547-1.53 4.324-1.53 1.651 0 3.03.556 4.135 1.669 1.106 1.112 1.66 2.47 1.66 4.078z"/><path d="M119.771 39.29c.561.354 1.048.432 1.461.23.413-.2.681-.656.805-1.367l2.104-11.792h4.3l-2.104 11.792c-.186 1.081-.553 2.004-1.098 2.769-.546.764-1.18 1.313-1.905 1.645a5.06 5.06 0 01-2.372.44c-.858-.039-1.706-.282-2.549-.73l1.356-2.989h.002v.001zm4.629-15.732c0 .57.206 1.015.619 1.332.412.316.908.475 1.484.475a3.152 3.152 0 001.963-.66c.577-.44.865-1.04.865-1.796 0-.571-.202-1.02-.607-1.344-.405-.325-.896-.487-1.472-.487a3.162 3.162 0 00-1.975.671c-.583.448-.877 1.05-.877 1.807v.002zm5.958 9.754c1.06.772 2.346 1.197 3.857 1.274.857 0 1.286-.208 1.286-.626 0-.309-.374-.494-1.122-.556-1.2-.046-2.224-.324-3.074-.834-.848-.51-1.273-1.297-1.273-2.362 0-1.005.303-1.839.912-2.503a4.932 4.932 0 012.22-1.402c.874-.269 1.848-.405 2.922-.405 1.916 0 3.404.463 4.464 1.39l-2.267 2.549c-.281-.202-.694-.367-1.24-.5a6.574 6.574 0 00-1.542-.196c-.748 0-1.122.208-1.122.627 0 .309.257.47.77.487 3.132.092 4.699 1.15 4.699 3.173 0 1.036-.308 1.9-.923 2.596a5.022 5.022 0 01-2.244 1.471c-.881.286-1.866.429-2.956.429-1.029 0-2.034-.135-3.016-.406-.98-.27-1.753-.637-2.314-1.1l1.963-3.106z" fill="#000"/><path d="M55.241 38.075c0 1.884-.553 3.3-1.659 4.251-1.107.95-2.478 1.425-4.113 1.425-1.73 0-3.1-.377-4.114-1.136-1.013-.756-1.535-1.813-1.566-3.174h1.87c.062.834.44 1.467 1.133 1.9.694.433 1.593.65 2.699.65 1.106 0 2.006-.33 2.747-.985.74-.656 1.11-1.634 1.11-2.93v-2.318a4.288 4.288 0 01-1.834 1.726 5.45 5.45 0 01-2.466.591c-1.698 0-3.11-.545-4.23-1.633-1.122-1.09-1.684-2.545-1.684-4.367s.565-3.247 1.695-4.32c1.13-1.075 2.544-1.602 4.242-1.587.888 0 1.725.196 2.512.591.788.393 1.383.953 1.787 1.679l.047-2.085h1.824v11.722zM49.19 27.974c-1.168 0-2.15.382-2.945 1.147-.794.765-1.192 1.772-1.192 3.023 0 1.25.398 2.263 1.192 3.036.795.772 1.777 1.158 2.945 1.158.764 0 1.445-.155 2.045-.463.6-.31 1.056-.711 1.367-1.205a5.343 5.343 0 00.678-1.633 3.84 3.84 0 000-1.785 5.322 5.322 0 00-.678-1.633c-.311-.494-.763-.895-1.355-1.204-.593-.31-1.27-.463-2.034-.463l-.024.022h.001zm17.456 7.993a4.39 4.39 0 01-1.846 1.506 5.862 5.862 0 01-2.408.51c-1.277 0-2.36-.32-3.249-.962-.887-.641-1.332-1.587-1.332-2.838 0-1.251.452-2.12 1.355-2.745.904-.626 1.995-.93 3.272-.916 1.574 0 2.93.317 4.067.95v-.904c0-.957-.355-1.652-1.064-2.084-.71-.433-1.6-.65-2.675-.65a8.744 8.744 0 00-3.763.858l-.352-1.6c1.465-.648 2.844-.973 4.138-.973 1.698 0 3.053.352 4.065 1.055 1.013.703 1.52 1.842 1.52 3.417v7.206H66.76l-.093-1.807-.023-.023h.002zm-1.927-3.58a8.49 8.49 0 00-1.998-.267c-.842 0-1.554.17-2.139.51-.584.34-.877.873-.877 1.6 0 .725.304 1.239.912 1.586.61.347 1.294.52 2.057.52 1.013 0 1.905-.3 2.675-.902.773-.603 1.173-1.383 1.204-2.34-.499-.294-1.11-.53-1.834-.707zm8.534-6.059l.14 1.715c.686-1.266 1.87-1.9 3.553-1.9 1.012-.03 1.908.255 2.688.857l-.866 1.621a3.476 3.476 0 00-2.01-.625c-.95.015-1.753.335-2.407.961-.655.626-.982 1.448-.982 2.467v6.372h-1.917V26.351h1.777l.024-.024v.001zm19.233-4.772v16.217h-1.8l-.094-2.085a4.463 4.463 0 01-1.834 1.726 5.386 5.386 0 01-2.488.59c-1.698 0-3.097-.528-4.196-1.586-1.098-1.058-1.647-2.506-1.647-4.344 0-1.838.545-3.325 1.636-4.367 1.09-1.042 2.486-1.564 4.184-1.564.872 0 1.713.197 2.524.59.81.395 1.41.963 1.8 1.704V21.58h1.893l.023-.023h-.001zm-6.076 6.348c-1.169 0-2.139.366-2.91 1.1-.771.734-1.157 1.75-1.157 3.047 0 1.298.386 2.294 1.157 3.036.771.741 1.741 1.112 2.91 1.112 1.168 0 2.143-.387 2.921-1.158.78-.773 1.17-1.777 1.17-3.012 0-1.236-.394-2.194-1.18-2.966-.788-.772-1.765-1.158-2.934-1.158h.023v-.001zm19.704 8.063c-.561.664-1.294 1.17-2.197 1.518a7.682 7.682 0 01-2.782.521c-1.807 0-3.271-.545-4.394-1.633-1.121-1.09-1.682-2.537-1.682-4.345 0-1.806.56-3.15 1.683-4.262 1.122-1.112 2.555-1.668 4.3-1.668 1.87 0 3.354.575 4.451 1.725 1.098 1.15 1.54 2.816 1.32 4.994h-9.815c.11 1.034.554 1.864 1.333 2.49.779.626 1.729.938 2.85.938a5.97 5.97 0 002.068-.382c.695-.254 1.227-.607 1.601-1.054l1.287 1.158h-.023zm-1.122-4.727c-.047-1.097-.421-1.942-1.122-2.537-.701-.595-1.63-.892-2.782-.892-1.044 0-1.947.3-2.71.904-.764.602-1.224 1.437-1.38 2.503h7.993v.022zm4.487-4.911h1.753l.093 1.83c.982-1.328 2.298-1.992 3.951-1.992 1.496 0 2.715.475 3.657 1.425.942.95 1.413 2.244 1.413 3.88V37.8h-1.916v-6.303c0-1.112-.311-1.985-.935-2.618-.623-.634-1.48-.95-2.57-.95-1.044.015-1.897.377-2.56 1.089-.662.71-.993 1.59-.993 2.641v6.14h-1.893v-11.47z" fill="#000"/><path d="M105.661 54.605l1.154-5.41h1.419c.337 0 .623.05.86.15.236.1.43.243.583.427.152.185.262.403.33.655.068.253.102.535.102.848 0 .457-.066.886-.198 1.286a3.22 3.22 0 01-.577 1.058 2.7 2.7 0 01-.938.722 2.96 2.96 0 01-1.28.264h-1.455zm-.409-6.997l-1.803 8.584h3.583c.825 0 1.549-.132 2.17-.397a4.247 4.247 0 001.55-1.1 4.67 4.67 0 00.932-1.665 6.692 6.692 0 00.313-2.08c0-1.066-.305-1.89-.914-2.47-.609-.581-1.519-.872-2.729-.872h-3.102zm8.897 0l-1.791 8.584h6.612l.336-1.587h-4.736l.444-2.104h4.316l.313-1.466h-4.316l.385-1.84h4.664l.325-1.587zm8.031 0l-1.804 8.584h1.78l1.286-6.829h.024l.83 6.83h1.442l3.631-6.83h.024l-1.563 6.83h1.767l1.816-8.585h-2.633l-3.306 6.216h-.024l-.661-6.216zm9.581 4.989c0 1.227.331 2.164.992 2.814.662.649 1.601.973 2.82.973.753 0 1.42-.142 2.001-.426a4.296 4.296 0 001.467-1.16c.397-.49.7-1.054.908-1.696a6.493 6.493 0 00.312-2.02c0-.6-.09-1.13-.27-1.586a3.177 3.177 0 00-.764-1.154 3.15 3.15 0 00-1.202-.704 4.998 4.998 0 00-1.575-.234c-.721 0-1.372.14-1.953.42a4.47 4.47 0 00-1.48 1.137 5.11 5.11 0 00-.93 1.653 6.021 6.021 0 00-.326 1.983zm1.888 0c0-.408.056-.827.168-1.256.113-.429.283-.817.511-1.166a2.79 2.79 0 01.878-.854c.357-.22.775-.33 1.256-.33.353 0 .65.06.89.18s.437.28.589.481c.152.2.262.435.33.703.069.269.103.555.103.86 0 .409-.058.825-.175 1.25-.116.425-.29.812-.523 1.16a2.928 2.928 0 01-.865.854c-.345.22-.75.33-1.214.33-.345 0-.64-.06-.884-.18a1.672 1.672 0 01-.601-.487 2.103 2.103 0 01-.349-.703 3.028 3.028 0 01-.114-.842z" fill="#14AAB8" fill-rule="nonzero"/></g></svg>