<svg viewBox="0 0 300 100" width="300" height="100" xmlns="http://www.w3.org/2000/svg" fill-rule="evenodd" clip-rule="evenodd" stroke-linejoin="round" stroke-miterlimit="2"><style>@media (prefers-color-scheme:dark){path.text{fill:#fff;}path.dot{fill:transparent;}}</style><path class="text" d="M87.24 11.174c-.15-.008-.306-.008-.457-.008-10.963 0-20.125 7.676-22.31 17.902-2.439-1.3-6.3-2.208-10.162-2.208-5.754 0-10.653 1.696-14.696 5.087-4.044 3.392-6.065 8.171-6.065 14.338 0 6.166 1.878 10.522 5.636 13.99 3.758 3.47 8.8 5.203 15.125 5.203 6.324 0 9.33 2.184 9.33 6.552 0 2.261-.92 3.995-2.76 5.202-1.841 1.208-4.082 1.813-6.726 1.813-6.065 0-9.279-2.57-9.642-7.709H34.094c-.104 5.55 1.569 9.853 5.014 12.91 3.448 3.058 8.464 4.588 15.047 4.588 5.702 0 10.6-1.465 14.696-4.394 4.095-2.929 6.143-7.066 6.143-12.41 0-5.653-2.851-9.738-8.553-12.256 5.339-2.724 8.086-7.169 8.242-13.335.155-3.957-1.799-8.976-3.228-10.903-.555-.747-1.11-1.538-1.807-2.354 10.077-2.34 17.588-11.305 17.592-22.008zM61.153 52.991c-1.866 1.593-4.147 2.39-6.842 2.39-2.851 0-5.224-.835-7.116-2.505-1.892-1.67-2.837-3.868-2.837-6.591 0-2.98.919-5.32 2.76-7.015 1.84-1.696 4.238-2.544 7.193-2.544 2.747 0 5.042.925 6.88 2.775 1.84 1.85 2.761 4.111 2.761 6.784 0 2.877-.933 5.113-2.799 6.706z" fill-rule="nonzero"/><path class="dot" fill="#8ceaf2" d="M63.952 46.285c0 2.877-.933 5.113-2.799 6.706-1.866 1.593-4.147 2.39-6.842 2.39-2.851 0-5.224-.835-7.116-2.505-1.892-1.67-2.837-3.868-2.837-6.591 0-2.98.919-5.32 2.76-7.015 1.84-1.696 4.238-2.544 7.193-2.544 2.747 0 5.042.925 6.88 2.775 1.84 1.85 2.761 4.111 2.761 6.784z" fill-rule="nonzero"/><path class="text" d="M231.884 71.26c.933.59 1.743.719 2.43.385.687-.334 1.133-1.093 1.34-2.275l3.5-19.618h7.153l-3.5 19.618c-.31 1.798-.92 3.333-1.827 4.606-.908 1.271-1.963 2.184-3.17 2.737-1.206.552-2.52.797-3.946.732-1.426-.065-2.837-.47-4.239-1.215l2.255-4.972.004.001v.001zm7.7-26.171c0 .95.343 1.689 1.03 2.217.685.525 1.51.79 2.468.79a5.244 5.244 0 003.266-1.099c.96-.731 1.44-1.728 1.44-2.987 0-.95-.337-1.696-1.011-2.236-.674-.54-1.49-.81-2.449-.81a5.26 5.26 0 00-3.285 1.117c-.97.745-1.458 1.747-1.458 3.006l-.002.002h.001zm9.912 16.227c1.763 1.284 3.902 1.992 6.416 2.12 1.426 0 2.14-.347 2.14-1.041 0-.514-.623-.822-1.867-.925-1.996-.077-3.7-.54-5.113-1.388-1.411-.848-2.118-2.158-2.118-3.93 0-1.671.504-3.058 1.517-4.163a8.204 8.204 0 013.694-2.332c1.452-.448 3.073-.675 4.86-.675 3.187 0 5.663.771 7.426 2.313l-3.772 4.24c-.467-.335-1.154-.61-2.062-.83-.839-.21-1.701-.32-2.566-.327-1.244 0-1.866.346-1.866 1.042 0 .514.427.783 1.282.81 5.21.154 7.816 1.913 7.816 5.28 0 1.722-.512 3.161-1.536 4.318a8.355 8.355 0 01-3.733 2.447c-1.465.475-3.103.713-4.917.713-1.711 0-3.384-.224-5.017-.675-1.632-.45-2.916-1.06-3.85-1.831l3.266-5.165v-.001z" fill-rule="nonzero"/><path class="text" d="M124.533 69.24c0 3.134-.92 5.491-2.76 7.072-1.841 1.581-4.122 2.371-6.843 2.371-2.877 0-5.158-.628-6.843-1.89-1.685-1.258-2.554-3.017-2.606-5.28h3.11c.104 1.387.733 2.44 1.886 3.16 1.154.72 2.65 1.08 4.49 1.08 1.84 0 3.337-.547 4.57-1.638 1.231-1.091 1.846-2.717 1.846-4.875v-3.854a7.134 7.134 0 01-3.051 2.87 9.066 9.066 0 01-4.102.984c-2.825 0-5.172-.906-7.038-2.717-1.866-1.812-2.8-4.233-2.8-7.265 0-3.031.94-5.402 2.819-7.187 1.88-1.787 4.232-2.665 7.057-2.64 1.477 0 2.87.327 4.18.984 1.31.654 2.3 1.586 2.973 2.793l.078-3.468h3.033v19.5l.001-.001v.001zm-10.068-16.804c-1.944 0-3.577.635-4.899 1.908s-1.984 2.948-1.984 5.03c0 2.08.662 3.764 1.984 5.049 1.322 1.285 2.955 1.927 4.899 1.927 1.27 0 2.403-.257 3.402-.77.997-.515 1.756-1.183 2.274-2.005a8.888 8.888 0 001.128-2.717 6.389 6.389 0 000-2.968 8.853 8.853 0 00-1.128-2.717c-.518-.822-1.27-1.49-2.255-2.004-.985-.514-2.113-.77-3.383-.77l-.04.037h.002zm29.04 13.297a7.303 7.303 0 01-3.071 2.505 9.752 9.752 0 01-4.006.848c-2.125 0-3.927-.533-5.405-1.6-1.477-1.066-2.217-2.64-2.217-4.721s.752-3.527 2.255-4.567c1.504-1.04 3.318-1.548 5.443-1.523 2.618 0 4.873.528 6.765 1.581v-1.504c0-1.593-.59-2.749-1.77-3.468-1.18-.72-2.662-1.08-4.45-1.08-2.152 0-4.239.475-6.26 1.426l-.585-2.66c2.437-1.08 4.731-1.62 6.883-1.62 2.825 0 5.08.585 6.764 1.755 1.685 1.17 2.528 3.064 2.528 5.685v11.987h-2.683l-.156-3.006-.038-.038h.004-.001zm-3.206-5.956c-1.205-.294-2.314-.443-3.325-.443-1.4 0-2.585.282-3.557.848-.972.565-1.459 1.452-1.459 2.66 0 1.208.505 2.062 1.517 2.64 1.013.577 2.152.866 3.422.866 1.684 0 3.169-.5 4.45-1.502 1.285-1.002 1.951-2.3 2.003-3.893-.83-.489-1.847-.88-3.051-1.176zm14.196-10.079l.234 2.853c1.14-2.107 3.11-3.16 5.91-3.16 1.684-.052 3.175.424 4.471 1.424l-1.44 2.698a5.782 5.782 0 00-3.343-1.041c-1.58.025-2.917.558-4.005 1.6-1.089 1.041-1.633 2.408-1.633 4.104v10.6H151.5v-19.04h2.955l.04-.04v.002zm31.996-7.939v26.979h-2.994l-.156-3.469a7.424 7.424 0 01-3.051 2.871 8.958 8.958 0 01-4.14.983c-2.825 0-5.151-.88-6.98-2.64-1.827-1.759-2.74-4.169-2.74-7.226 0-3.058.907-5.531 2.722-7.265 1.814-1.733 4.135-2.602 6.96-2.602 1.451 0 2.85.327 4.199.983 1.347.656 2.346 1.6 2.994 2.834V41.798h3.15l.038-.039h-.002zm-10.108 10.56c-1.944 0-3.558.61-4.84 1.831-1.284 1.22-1.925 2.91-1.925 5.069 0 2.158.641 3.816 1.925 5.05 1.282 1.233 2.896 1.85 4.84 1.85s3.565-.643 4.86-1.927c1.297-1.285 1.945-2.955 1.945-5.01 0-2.056-.655-3.65-1.963-4.934-1.31-1.285-2.936-1.927-4.88-1.927h.038v-.002zm32.779 13.414c-.933 1.105-2.152 1.946-3.655 2.525a12.778 12.778 0 01-4.627.867c-3.007 0-5.443-.906-7.31-2.717-1.866-1.812-2.799-4.22-2.799-7.227 0-3.006.933-5.241 2.8-7.091 1.866-1.85 4.25-2.775 7.153-2.775 3.11 0 5.58.957 7.406 2.87 1.826 1.914 2.56 4.684 2.196 8.307h-16.329c.182 1.721.921 3.102 2.217 4.143 1.296 1.042 2.877 1.56 4.743 1.56 1.14 0 2.288-.212 3.44-.635 1.155-.423 2.041-1.009 2.663-1.754l2.14 1.927h-.038zm-1.867-7.864c-.077-1.824-.7-3.23-1.866-4.22-1.166-.99-2.71-1.484-4.627-1.484-1.737 0-3.24.5-4.51 1.504-1.27 1.002-2.035 2.39-2.295 4.163h13.297v.037h.001zm7.465-8.17h2.917l.155 3.045c1.633-2.21 3.822-3.314 6.572-3.314 2.488 0 4.516.79 6.084 2.37 1.567 1.581 2.351 3.733 2.351 6.456V68.78h-3.188V58.296c0-1.85-.518-3.303-1.555-4.356-1.037-1.054-2.462-1.581-4.276-1.581-1.737.025-3.156.628-4.258 1.812-1.102 1.182-1.652 2.646-1.652 4.394v10.214h-3.15v-19.08z" fill-rule="nonzero"/><text x="229.782" y="36.2" font-family="'HelveticaNeue-BoldItalic','Helvetica Neue'" font-weight="700" font-style="italic" font-size="29.275" fill="#14aab8" transform="translate(70.256 74.952) scale(.61487)">DEMO</text></svg>