<svg width="30" viewBox="0 0 32 32" height="30" xmlns="http://www.w3.org/2000/svg"><path d="M16 0c8.837 0 16 7.163 16 16s-7.163 16-16 16S0 24.837 0 16 7.163 0 16 0zm0 22.2a1 1 0 00-1 1V25a1 1 0 002 0v-1.8a1 1 0 00-1-1zm5.801-1.813a1 1 0 00-1.414 1.414l1.269 1.27a1 1 0 001.414-1.415zm-10.188 0a1 1 0 00-1.414 0l-1.27 1.269a1 1 0 001.415 1.414l1.27-1.269a1 1 0 000-1.414zM16 12.4a3.6 3.6 0 100 7.2 3.6 3.6 0 000-7.2zM8.8 15H7a1 1 0 000 2h1.8a1 1 0 000-2zM25 15h-1.8a1 1 0 000 2H25a1 1 0 000-2zm-1.93-6.07a1 1 0 00-1.414 0l-1.27 1.269a1 1 0 001.415 1.414l1.27-1.269a1 1 0 000-1.414zm-12.726 0a1 1 0 00-1.414 1.414l1.269 1.27a1 1 0 001.414-1.415zM16 6a1 1 0 00-1 1v1.8a1 1 0 002 0V7a1 1 0 00-1-1z" fill="#a5bad9" fill-rule="evenodd"/></svg>