<svg viewBox="0 0 510 200" xmlns="http://www.w3.org/2000/svg" fill-rule="evenodd" clip-rule="evenodd"><path d="M408.567 1.212c11.113-4.256 10.538 3.59 10.538 8.948 0 5.358-9.895.506-12.78 3.758-7.734 8.722-3.474 21.527 12.78 38.414h-33.013c3.215-2.635 5.565-7.723 7.05-15.264 2.224-11.31 0-15.059 1.71-23.15 1.142-5.394 5.713-9.63 13.715-12.706z" fill="#49ac4e"/><path d="M345.18 53.555c.075.02.88.02 2.41 0 9.81-5.264 18.264-4.723 25.36 1.62 2.663 2.379 7.683-9.572 27.567-9.572 20.521 0 28.094 11.348 30.878 11.348 2.783 0 4.457-10.982 24.54-3.396 1.118-.038 1.833-.108 2.148-.208 22.871-7.275 57.74 7.752 51.09 72-4.432 42.832-22.178 65.15-53.239 66.951-2.157 3.455-7.672 5.182-16.547 5.182-8.873 0-14.795-1.231-17.764-3.695-2.067 4.143-8.184 6.214-18.351 6.214-11.024 0-17.68-2.071-19.966-6.213-5.054 3.513-12.056 4.745-21.001 3.695-8.608-1.012-14.317-3.548-17.126-7.608-43.726-10.77-49.98-47.254-49.98-67.536 0-20.282 5.835-79.564 49.98-68.78v-.002z" fill="#ff9700"/><path d="M347.88 53.557c-20.058 10.814-30.504 33.438-31.337 67.873-.052 2.107-.135-1.774 0 .25 1.354 20.148 11.057 42.89 29.11 68.226a3.65 3.65 0 01-.44-.186c-28.159-16.211-38.096-38.614-39.231-66.996a21.69 21.69 0 010-2.027c2.053-46.646 16.19-60.863 39.481-67.14.517-.138 1.322-.138 2.417 0zm108.894 0c21.927 6.852 33.306 27.52 34.136 62.006.05 2.11-.004-.84 0 1.226.033 20.413-11.657 45.632-35.073 75.66.468.1.779.1.937 0 26.992-17.092 40.116-43.656 42.849-75.66.06-.718-.052-.485 0-1.226 3.463-49.432-18.445-55.719-41.642-62.006-.514-.138-.916-.138-1.207 0z" fill="#ed7800"/><path d="M373.718 55.388c.899-.37 1.33-.506 1.29-.41-10.371 30.796-15.702 53.55-15.992 68.265-.042 2.115.124-1.36 0 .676-.93 15.259 7.23 38.48 24.478 69.661-.085.086-.173.086-.265 0-24.451-22.685-36.823-46.16-36.823-69.661 0-.749-.022.073 0-.676.985-31.068 10.09-53.686 27.313-67.855h-.001zm57.212 1.645c9.3 23.012 14.167 45.616 14.601 67.81.041 2.113-.124-1.36 0 .675.924 15.249-7.017 38.01-23.825 68.28.197.218.352.274.468.168 23.88-21.755 35.88-45.001 35.88-68.448 0-.747.022.074 0-.674-.95-30.133-9.474-53.585-25.612-67.81-.327-.288-.83-.288-1.512 0v-.001z" fill="#ed7800"/><path d="M347.906 38.07c6.434 9.29-13.336 57.954-31.406 87.552-18.071 29.598-40.482 55.34-49.078 60.664-8.594 5.323-28.424 16.586-47.634-3.242-19.21-19.826-20.496-28.686-14.246-43.526 6.25-14.842 24.08-32.955 39.218-43.208 15.138-10.253 50.515-44.261 61.46-62.188 3.081-5.048 12.023-12.279 15.334-12.388 4.963-.164 19.918 7.05 26.353 16.337z" fill="#502299"/><path d="M339.904 19.09c3.627-4.57 6.575-7.6 8.844-9.09 2.749-1.802 2.441 2.315 2.07 2.923-1.284 2.105-3.632 4.959-7.042 8.566 5.945 5.295 8.439 10.964 7.482 17.007-.262 1.653-2.89 28.592-5.382 25.958-2.492-2.637-.831-18.413-5.527-19.696-4.696-1.282-14.113 7.63-16.19 8.86-1.707 1.012-2.827-1.193-2.728-1.69 2.156-10.852 2.335-21.327 1.111-19.937-3.792 4.31-23.867 11.104-21.53 7.278 1.078-1.767 11.731-15.2 21.31-20.307 4.116-2.194 9.977-2.15 17.583.127h-.001z" fill="#89c057"/><path d="M24.05 156.92c-.916-.958-16.056-5.886-24.05-13.922.1-.476.43-.897.988-1.265.56-.368 1.053-.414 1.48-.139 12.662 9.934 20.732 10.563 21.939 10.657.45.034 1.078-.137 2.708-2.423 4.606-6.458 2.935-2.336 2.416-.726-.798 2.486-1.554 3.217-1.823 6.715-.268 3.497 3.628 16.388-1.815 5.567-.549-1.092-.928-3.505-1.843-4.463z" fill="#548515"/><path d="M317.348 195.9c4.98 0 7.36.78 9.774.78 17.908 0 26.198-15.95 23.827-40.581-1.098-11.4-6.968-20.928-15.086-25.358-7.98-4.356-18.208-3.712-19.677-3.712-18.621 0-35.695 6.756-35.695 30.927 0 24.172 7.235 38.723 25.015 38.723 2.015 0 6.864-.78 11.842-.78z" fill="#cf1414"/><path d="M332.926 127.356c2.833 2.366-2.08-1.071-6.265-1.388-1.49-.112-4.06 1.725-4.518 2.198-1.746 1.797 3.787 3.813 5.748 4.756 1.456.699 6.933 4.043 5.763 4.213-.597.085-12.354-5.967-15.252-5.967-2.897 0-1.18 14.413-1.71 14.584-1.015.331-2.443-9.398-2.153-11.53.152-1.12-.578-2.364-1.895-2.364-3.822 0-14.713 8-14.713 6.825 0-.575 9.505-8.012 12.354-9.216 2.85-1.205-4.164-3.67-5.596-4.51-4.11-2.408-7.607-1.425-7.607-2.06 0-.313 8.795-1.098 17.457 3.794.217.124 1.087.17 2.06-.176 5.544-1.97 9.188-2.265 10.504-1.97 4.13.927 5.768 2.765 5.822 2.811z" fill="#328c32"/><path d="M320.266 115.431c-2.42 4.624-2.905 9.14-1.451 13.549 0 .592-.674.887-2.021.887s-2.031-.295-2.051-.887c.339-7.466 1.696-12.744 4.072-15.835 1.45-1.889 3.864-5.941 5.136-4.18 1.271 1.761-1.931 3.118-3.685 6.466z" fill="#1b661b"/><path d="M142.764 44.863c3.686-5.142 5.93-6.344 13.68-6.902 5.515-.396 15.752-1.795 26.776-.264 1.537.214 8.963-4.514 24.863-1.79 17.483 2.997 24.68 13.209 25.806 29.758 1.067 15.704-8.192 86.555-11.443 98.649-1.69 6.287-12.587 30.613-34.688 27.643-10.45-1.404-14.299-3.238-13.684-3.458-8.805 2.989-17.999-4.256-20.287-6.802-3.892-4.333-8.27-28.328-6.535-38.782 4.203-25.331-22.038-73.572-4.488-98.053v.001z" fill="#edc427"/><path d="M179.056 54.15l.094 1.368c-5.66 3.995-7.678 10.615-6.059 19.858 2.723 15.539 4.913 39.676 5.427 47.23.513 7.552-4.413 30.276-2.81 53.857.922 13.585.792 8.902.682 10.059-.372 3.879 5.237 4.216 4.518 4.267-5.233.377-6.445-1.345-7.817-2.17-.223-.132.245-.613-.524-11.929-1.46-21.501 4.156-47.133 3.73-54.12-.289-4.76-2.21-21.961-5.478-47.032-1.478-11.338 1.268-18.467 8.237-21.388zm22.438-8.01c31.274-2.25-.04 143.937-.04 143.937s-.527.124-1.897.708c-1.37.583 31.422-144.516-1.426-142.153-.506.037 2.582-2.437 3.364-2.49v-.001z" fill="#ed9f27"/><path d="M180.645 31.488c1.097-3.147 3.33-8.154 6.7-15.02 3.875.724 6.116 1.472 6.726 2.243.929 1.18-8.276 11.71-5.58 14.63 2.697 2.92 7.24 1.494 9.628 1.494 13.81 0 17.623 2.683 11.495 2.335-6.13-.347-5.885 1.66-7.875 4.203-2.27 2.9 4.22 4.514 4.645 6.202.173.687-1.398 1.983-2.812 2.085-4.888.352-8.253-2.216-10.755-2.085-4.252.22-12.846 7.552-13.667 7.943-4.186 1.99-1.25-4.596-1.555-9.095-.307-4.5-2.116-3.16-7.2-5.443-5.637-2.53-10.811-2.814-10.522-3.181 3.572-4.53 19.124-1.59 20.77-6.31h.002z" fill="#090"/><path d="M112.639 103.223c-1.572-2.818-3.034-3.652-6.686-5.846-2.918-1.752-7.193-3.38-7.414-4.754-.246-1.526 5.03-2.341 6.639-1.41 2.49 1.441 12.245 3.791 15.511 3.287 3.408-.527 2.798-10.334 4.112-11.21 1.313-.878 7.994-1.7 8.618-1.333.961.57-2.768 5.61-1.968 9.626.136.685 3.847-6.736 9.4-7.984 1.86-.42 4.789 1.748 4.789 1.748s-5.104 4.207-6.342 6.279c-3.264 5.467-4.395 12.25-3.8 16.751 1.089 8.261 14.184 40.891 10.378 42.52-3.807 1.629-23.34 4.507-24.938 3.853-1.6-.656-4.099-5.784-4.125-15.841-.023-10.057 3.57-21.787-4.174-35.686z" fill="#75c267"/><ellipse cx="110.193" cy="65.388" rx="49.658" ry="44.439" fill="#4ca747" transform="matrix(.32054 -.165 .17018 .31078 70.752 55.002)"/><ellipse cx="57.778" cy="113.562" rx="44.391" ry="37.019" fill="#268c21" transform="matrix(.30788 -.18626 .19212 .2985 56.05 47.839)"/><ellipse cx="70.518" cy="92.534" rx="44.375" ry="40.207" fill="#299f23" transform="matrix(.32054 -.165 .17018 .31078 63.082 47.26)"/><path d="M141.695 71.069c8.874-.304 15.85-6.868 15.582-14.663-.269-7.796-5.323-12.921-16.551-13.566-11.229-.645-15.85 6.868-15.582 14.664.268 7.795 7.678 13.868 16.55 13.565z" fill="#48b142"/><path d="M107.656 98.947c1.31-1.16-3.46-2.327-2.493-4.339.477-.993.773-2.115 2.715-1.716 1.994.41 5.647 2.343 7.056 1.559 7.271-4.048 5.442-13.285 2.305-19.048-4.06-7.456-13.665-13.194-23.565-8.068C83.775 72.461 79.027 86.252 83.866 94c4.838 7.745 16.259 11.616 23.79 4.948z" fill="#22991c"/><path d="M125.675 85.504c1.095-.62 5-2.302 6.46-.997 3.58 3.203 4.886-3.619 6.319-5.676 3.894-5.591 7.152-10.688 5.467-16.852-2.504-9.15-15.99-14.11-26.286-11.422-10.294 2.69-13.5 12.007-10.996 21.158 1.273 4.651 1.068 10.924 8.12 12.656 7.052 1.73 7.325 3.168 10.916 1.133z" fill="#1f941d"/><path d="M148.449 88.082c8.53 2.382 16.312-3.913 18.38-12.867 2.069-8.953-3.825-18.115-10.43-19.531-6.602-1.417-17.977-1.547-20.862 10.112-1.423 5.742-3.17 12.536-.437 15.94 1.01 1.26 1.857 2.413 3.527 3.248.582.292 3.14-.797 3.883-.6 3.07.813 3.704 3.073 5.939 3.698z" fill="#47a742"/><path d="M29.215 166.759c-1.593-2.156-2.197-5.741-1.813-10.757.384-5.017 1.53-8.502 3.437-10.454 4.602-4.57 24.492 3.37 74.803 13.803 50.31 10.432 73.397 32.47 72.05 35.509-1.347 3.038-44.975-12.701-75.447-18.346s-67.539-2.29-73.03-9.756z" fill="#f40000"/><g><path d="M306.366 114.231c1.377-.947 3.351-3.684 2.874-3.446-.719.359-1.807-.64-2.055-1.347-.108-.307 3.214-5.108 3.324-6.923.207-3.414-1.54-3.823-2.71-7.033-.478-1.311-1.688-7.593-3.134-5.858 0 0 1.085 3.471 1.596 7.184.108.786.724 3.246.765 4.023.162 3.082-.47 3.483-1.397 3.636-1.396.23-1.91-1.21-3.669-4.087-1.14-1.866-2.935-2.707-3.864-4.387-.908-1.642-2.304-4.387-2.44-5.192-.236-1.382 1.512-4.882 1.358-6.637-.152-1.719-3.41 4.391-3.186 6.83.224 2.44 6.924 10.84 5.818 12.158-.532.635-2.89-2.774-6.116-7.228-3.224-4.453-6.045-5.807-8.47-7.802-1.045-.86-5.471.855-5.531.927-.347.416 4.858.266 6.435 1.817 1.234 1.214 1.689 2.376 3.058 3.88 2.336 2.565 2.09 3.095 3.792 5.642 1.14 1.707 3.083 2.87 4.388 4.43.938 1.122 2.134 3.243 1.3 3.928-.834.685-2.457-1.332-5.69-2.491-2.098-.752-3.286.396-4.82.251-.82-.077-2.377-.748-4.703-1.28-1.44-.33-7.073-4.94-6.835-4.675 1.037 1.158 3.455 5.402 6.19 6.564 4.439 1.886 10.49 1.575 11.37 2.79.43.594 2.87 3.575-.518 3.832-1.254.095-5.23-.556-8.059.211-1.741.473-2.94 2.301-3.127 2.74-.096.223 1.998-1.017 3.147-1.03 2.564-.032 7.485 1.044 8.479.872 5.12-.885 7.046-2.167 10.287-4.086 1.271-.753 1.221 2.893 2.143 1.787z" fill="#090" stroke="#090" stroke-width=".36" transform="matrix(1.37005 0 0 1.48546 -377.627 -93.017)"/><path d="M398.86 189.31c6.273-7.496-61.737-74.311-69.258-80.56-7.52-6.25-16.147-3.115-22.42 4.382-6.272 7.497-7.816 16.518-.295 22.767 7.52 6.249 85.7 60.909 91.973 53.412v-.001z" fill="#e66835" stroke="#e66835" stroke-width=".53" transform="matrix(1.37005 0 0 1.48546 -377.627 -93.017)"/><path d="M326.03 132.291c-10.775 11.311-12.264 8.749-12.264 8.749m32.995-15.804c.027 1.645-2.858 5.058-8.651 10.24m-5.448 18.658c1.906.507 5.334-2.13 10.285-7.91m21.735-2.572c-.045 1.537-2.357 4.24-6.934 8.11m34.239 23.188c.037.838-1.204 2.325-3.72 4.464m.286 8.201c.664-.033 1.798-1.005 3.4-2.917m-36.017-15.338c1.366.793 4.102-1.228 8.207-6.062m15.646-3.175c.456.924-1.578 3.105-6.103 6.541m-.431 13.109c.787.064 2.61-1.178 5.468-3.724" fill="none" stroke="#952d03" stroke-width=".53" stroke-linecap="round" transform="matrix(1.37005 0 0 1.48546 -377.627 -93.017)"/></g><g><path d="M228.391 58.91c-2.856-3.116-3.764-7.72 1.042-2.842 4.807 4.88 3.248 17.568 6.315 20.483 3.068 2.915 2.431 12.077-1.468 5.014-3.899-7.062-3.032-19.54-5.889-22.655z" fill="#1ba11b"/><path d="M239.85 56.514c2.15-3.516.82-7.804-1.309-3.176-2.128 4.626-5.762 24.928-2.925 25.127 2.836.2 4.138.33 4.316-2.238.179-2.568-2.23-16.198-.082-19.713z" fill="#124f12"/><path d="M251.004 29.107c-.737-6.641-3.773-5.378-2.135.718 1.637 6.096-5.704 17.026-8.988 33.065-2.19 10.694-4.665 24.512-7.425 41.453l11.269-.387c-2.787-11.3-3.089-24.39-.908-39.268 3.272-22.318 8.925-28.94 8.187-35.58z" fill="#319d31"/><path d="M236.658 33.736c1.064-6.192 2.353.504 1.027 3.47-1.327 2.965-2.128 14.502-1.001 29.564.75 10.042.26 22.632-1.47 37.768l-8.289-3.378c3.933-8.81 5.808-20.142 5.62-33.997-.28-20.784 3.049-27.236 4.113-33.427z" fill="#0d700d"/><path d="M262.635 36.718c.523-7.54-.696-4.856-1.864-.131-1.168 4.723-12.467 7.868-15.784 24.371-1.103 5.492-3.534 8.227-4.01 17.884-.474 9.657-2.93 18.868-1.542 25.053.926 4.124 3.232 3.759 6.918-1.095-1.749-10.718-1.518-23.73.692-39.036 2.161-14.961 15.203-21.48 15.59-27.047z" fill="#1b5d1b"/><path d="M219.936 116.602c2.517-2.68 6.795-14.428 6.985-17.222.057-.833 1.41.842 1.983 1.197 1.586.984 3.755 3.97 6.811-.456.504-.732 1.047 2.637 2.267 2.37 1.668-.363 2.792-3.885 4.51-2.822 1.72 1.065 4.237.706 4.137 2.186-.326 4.798.158 13.315 1.563 16.783 1.405 3.467 24.902 41.561 10.085 63.643-6.992 10.42-13.61 10.08-17.909 11.854-.352.145-1.206-.643-1.449 2.916-.241 3.557.134 2.866-.2 2.938-.263.058-.928-1.33-1.036-3.029-.084-1.32.397-3.051.203-3.004-.1.025-2.957.789-1.922 1.948 1.033 1.158.3 3.923-.263 3.868-.528-.052.961-.965-1.748-4.013-2.71-3.048-1.746-1.722-2.215-1.244-.443.452-.218 1.4-.183 2.706.016.639.608 2.79-.152 2.24-.827-.594-1.188-1.48-1.361-2.35-.312-1.565-.013-3.08-.72-2.77-3.954 1.732-3.738 5.426-4.07 4.677-.8-1.799 1.804-4.97 1.435-4.867-1.324.37-2.735.102-4.249 1.71-.43.459-1.625 1.157-2.178 1.684-1.559 1.49-1.14.345.125-1.83.756-1.302 3.365-2.705 3.174-2.791-2.827-1.268-13.677 2.263-22.59-16.014-8.913-18.276 13.791-54.799 18.967-60.308z" fill="#c47106"/><path d="M242.954 122.154c-.741-.669 1.02 8.41 5.007 13.865 6.195 8.473 9.358 14.755 10.338 29.194.588 8.679-3.178 15.22-6.156 19.02-1.668 2.126-2.545 3.5-3.59 3.644-1.699.234 1.12.796 2.16-.582.937-1.24 9.77-8.82 8.733-22.082-1.147-14.66-4.765-21.715-10.892-29.769-2.638-3.467-5.6-13.29-5.6-13.29zm-8.938-1.668c.581-2.37.796 9.326-2.871 17.154-6.017 12.847-7.414 18.246-8.38 23.514-1.41 7.683-.326 16.25 3.246 25.703l-1.484.054s-6.004-10.791-3.022-25.847c3.083-15.568 6.564-19.127 8.399-23.512 3.525-8.43 4.11-17.066 4.11-17.066h.002z" fill="#e3b231"/><path d="M238.424 125.124c-.395-2.205-1.419 8.977.902 16.305 3.81 12.026 4.382 17.052 5.068 21.947 1.153 8.23-1.092 18.983-2.007 21.301-.921 2.335-.815 1.769-.455 2.373.32.54 1.449-2.373 1.449-2.373s4.32-7.307 2.231-21.301c-2.16-14.468-4.047-17.846-5.22-21.947-2.253-7.88-1.968-16.305-1.968-16.305zm-11.98-4.717c.716-2.494 1.42 1.124-5.29 11.094-6.714 9.972-11.05 15.248-12.022 29.576-.91 13.435 5.255 24.23 8.893 24.682 2.125.265-1.793 1.276-3.117-.114-1.19-1.249-8.53-6.708-7.31-24.678 1.035-15.272 9.982-26.451 12.314-29.554 3.186-4.239 6.534-11.006 6.534-11.006h-.001z" fill="#e3b231"/></g></svg>